<svg width="24" height="24" xmlns="http://www.w3.org/2000/svg">
 <g>
  <title>Layer 1</title>
  <g id="svg_70">
   <g id="svg_17">
    <path id="svg_18" fill="#ab5832" d="m6.31464,11.10904l0,-2.74729l-0.20504,0.0135l0,-1.6921l1.97794,-0.0135l0,1.66646l-0.20504,0l0,1.61383l-1.56785,1.1591l0,0z"/>
    <path id="svg_19" fill="#fff3e1" d="m11.93465,7.65334l-5.68127,6.16117l0.04376,5.69564l11.22126,-0.11469l0.01625,-6.07211l-5.6,-5.67l0,0z"/>
    <path id="svg_20" d="m6.04083,18.51027l0.39259,-0.23344l0,-4.59861l-0.36508,0.26312c-0.00125,0 0.04001,4.56892 -0.02751,4.56892z" fill="#5f4e47"/>
    <path id="svg_21" fill="#5f4e47" d="m17.3221,13.9265l0,4.32199l0.39259,0.23344l0,-4.39486l-0.39259,-0.16057l0,0z"/>
    <path id="svg_22" fill="#bcaa93" d="m11.9734,8.31183l-5.90632,5.96551l0,-1.50453l5.91257,-6.04377l5.73503,6.40945l0,1.26974l-5.74128,-6.0964z"/>
    <path id="svg_23" d="m5.4882,12.51507l-0.34633,0.68952l0.92896,-0.01484s5.79505,-6.0829 5.92007,-6.0883c0.15128,-0.00675 5.72128,6.1949 5.72128,6.1949l0.82393,-0.0135l-6.18138,-7.18668l-0.9077,-0.06477l-5.95883,6.48366l0,0.00001z" fill="#ab5832"/>
    <path id="svg_24" d="m4.41922,13.03188c-0.09752,0.12819 -0.00125,0.19566 0.07752,0.19566s0.98647,-0.02834 0.98647,-0.02834l6.2564,-6.57002s0.14378,-0.15922 0.2463,-0.15383c0.11127,0.0054 0.25506,0.15787 0.25506,0.15787l6.2864,6.65098s0.71641,0.0027 0.83018,-0.02834c0.12378,-0.03238 0.06126,-0.15922 -0.09127,-0.33599c-0.11253,-0.13089 -6.4677,-6.91546 -6.57272,-7.03285c-0.31257,-0.34813 -0.4651,-0.55054 -0.76017,-0.53704c-0.29632,0.0135 -0.47136,0.24963 -0.76767,0.54379c-0.08752,0.08906 -6.70525,7.08413 -6.74651,7.1381l0,0z" fill="#ed6c31"/>
    <g id="svg_25" fill="#a6cfd5">
     <path id="svg_26" d="m15.60922,15.41214l1.28154,0l0,-1.151a0.35883,0.38727 0 0 0 -0.35883,-0.38727l-0.92271,0l0,1.53827z"/>
     <path id="svg_27" d="m15.22413,15.41214l0,-1.53827l-1.00022,0a0.35883,0.38727 0 0 0 -0.35883,0.38727l0,1.15235l1.35905,0l0,-0.00135z"/>
     <path id="svg_28" d="m15.22413,15.84934l-1.35905,0l0,1.07949a0.35883,0.38727 0 0 0 0.35883,0.38727l1.00022,0l0,-1.46675z"/>
     <path id="svg_29" d="m15.60922,15.84934l0,1.46675l0.92271,0a0.35883,0.38727 0 0 0 0.35883,-0.38727l0,-1.07949l-1.28154,0z"/>
    </g>
    <g id="svg_30" fill="#a6cfd5">
     <path id="svg_31" d="m8.51388,15.41214l1.28154,0l0,-1.151a0.35883,0.38727 0 0 0 -0.35883,-0.38727l-0.92271,0l0,1.53827z"/>
     <path id="svg_32" d="m8.12755,15.41214l0,-1.53827l-1.00022,0a0.35883,0.38727 0 0 0 -0.35883,0.38727l0,1.15235l1.35905,0l0,-0.00135z"/>
     <path id="svg_33" d="m8.12755,15.84934l-1.3578,0l0,1.07949a0.35883,0.38727 0 0 0 0.35883,0.38727l1.00022,0l0,-1.46675l-0.00125,0z"/>
     <path id="svg_34" d="m8.51388,15.84934l0,1.46675l0.92271,0a0.35883,0.38727 0 0 0 0.35883,-0.38727l0,-1.07949l-1.28154,0z"/>
    </g>
    <path id="svg_35" d="m10.21301,18.90698s-0.01875,-3.33831 0,-4.18166c0.01875,-0.842 0.75142,-1.57065 1.60036,-1.53962c1.05023,0.03913 1.59036,0.67603 1.62911,1.49779c0.03876,0.82176 0.03876,4.27477 0.03876,4.27477l-3.26823,-0.05128l0,0z" fill="#d27857"/>
    <path id="svg_36" d="m10.60435,19.0878s-0.015,-3.55691 0,-4.21539c0.01875,-0.81636 0.58888,-1.24546 1.25153,-1.20498c0.77142,0.04723 1.15276,0.48982 1.18276,1.13346c0.03001,0.64229 0.03001,4.28961 0.03001,4.28961l-2.4643,-0.0027z" fill="#ab5932"/>
    <g id="svg_37" fill="#d27857">
     <path id="svg_38" d="m12.66981,16.18802c-0.0025,-0.58562 -0.0075,-1.10243 -0.015,-1.2603c-0.02,-0.42505 -0.30007,-0.75564 -0.84394,-0.77588c-0.43885,-0.01619 -0.80018,0.35353 -0.81018,0.78938c-0.00375,0.16057 -0.0025,0.66523 0,1.24006l1.66912,0.00675z"/>
     <path id="svg_39" d="m11.00444,16.84516c0.005,0.78398 0.01125,1.50588 0.01125,1.50588l1.65912,0.0054s0,-0.71921 -0.0025,-1.50318l-1.66787,-0.0081z"/>
    </g>
    <path id="svg_40" d="m12.67481,16.48893c-0.00625,0.19026 0.06502,0.34409 0.27381,0.34409s0.28506,-0.10525 0.30007,-0.309c0.0125,-0.18216 -0.10377,-0.34409 -0.30007,-0.33059c-0.19504,0.01484 -0.26881,0.16192 -0.27381,0.29551l0,0z" fill="#ffba02"/>
    <path id="svg_41" d="m13.87258,20.19967s1.36031,0.01484 2.34302,-0.01619c0.98272,-0.03103 1.69413,0.01619 1.84041,-0.14303c0.14628,-0.15787 0.14378,-1.50318 -0.53762,-1.86751c-0.62639,-0.33464 -1.03148,0.0054 -1.24653,0.02834c-0.28381,0.03103 -0.63514,-0.15922 -0.8927,-0.16462c-1.06399,-0.02429 -1.43657,0.87843 -1.43657,0.87843l-0.07001,1.28459l0,0z" fill="#728037"/>
    <path id="svg_42" d="m5.73576,20.08902c0.11377,0.11469 0.98272,0.11874 2.0317,0.11065c1.04899,-0.0081 1.89292,0.0027 1.89292,0.0027l0.17504,-1.1429l-0.21255,-0.19026s0.02376,-0.57213 -0.64514,-0.76779c-0.4626,-0.13493 -0.86519,0.08771 -1.25403,0.09446c-0.38884,0.0081 -0.74767,-0.18216 -1.18026,-0.07152c-0.40259,0.10255 -0.71641,0.38592 -0.84394,0.95804c-0.08877,0.39671 -0.06626,0.90272 0.03626,1.00662z" fill="#728037"/>
    <path id="svg_43" d="m9.53536,21.3952l0.00875,-1.19418l0.08127,0l-0.00125,-1.33047l4.34222,0l-0.015,1.33047l0.09502,0l0,1.16315c-0.00125,-0.00135 -4.51101,0.03778 -4.51101,0.03103l0,0z" fill="#b0b0b0"/>
    <path id="svg_44" fill="#9b9b9b" d="m14.04512,20.87299l0,0.48982l-4.51101,0.03238l0.00375,-0.52625l4.50726,0.00405z"/>
    <path id="svg_45" fill="#9b9b9b" d="m9.62288,19.68286l4.33222,0.00135l0,0.51545l-4.33222,0l0,-0.5168z"/>
   </g>
   <g id="svg_1" transform="matrix(0.32491, 0.0591621, -0.058933, 0.326173, 3.94172, -1.714)">
    <path id="svg_2" fill="#2F3750" d="m20.14798,28.3811c-4.1236,0.73507 -6.84426,1.82013 -6.84426,3.38452c0,2.86793 8.75946,5.99013 19.56367,5.99013c10.80507,0 19.56453,-3.12221 19.56453,-5.99013c0,-1.57462 -2.49479,-2.71887 -6.66868,-3.45394l-3.57896,-16.11301l-17.70132,-8.78499l-9.31689,13.57754l10.24849,-4.79255l-0.0017,-0.00219l1.86491,3.19674l-7.12979,12.98788z"/>
    <path id="svg_3" fill="#262C42" d="m45.76324,28.31169c4.17389,0.73507 6.66868,1.87858 6.66868,3.45394c0,2.86793 -8.75946,5.99013 -19.56453,5.99013c-1.76945,0 -3.4835,-0.08476 -5.11402,-0.23747c8.32477,-0.78037 14.45051,-3.35456 14.45051,-5.75266c0,-0.24478 0,0.14468 0,-0.58601c2.55701,-0.73068 3.40934,-2.19205 3.55936,-2.86793z"/>
    <path id="svg_4" fill="#424A66" d="m20.14798,28.3811c0.1466,-0.44133 7.12979,-12.98715 7.12979,-12.98715l0.80887,0.12202l-4.84724,14.93296c-0.58555,-0.16002 -3.43577,-1.02734 -3.09142,-2.06783z"/>
    <path id="svg_5" fill="#424A66" d="m17.68132,32.49777c0.19604,-1.04999 3.78267,-1.83401 5.61178,-1.8194l-2.51098,-1.62942c-3.84915,0.11618 -6.47094,0.75772 -6.79482,2.21104c-0.22928,1.03099 0.69039,2.28411 2.4641,3.54381c1.36118,0.67515 3.14427,1.28819 5.23505,1.7836c-2.72577,-1.46356 -4.21565,-2.96584 -4.00513,-4.08963z"/>
    <polygon id="svg_6" fill="#262C42" points="25.41372799873352,12.197180390357971 24.482980012893677,10.60140860080719 24.038892030715942,10.081129670143127 15.166112184524536,16.991209626197815 25.41542935371399,12.198668122291565 "/>
    <path id="svg_7" fill="#262C42" d="m44.9092,24.46538l-2.72492,-12.26596l-17.70132,-8.78572l2.79481,2.05541l10.69085,7.87749l3.08546,12.82128c0.95547,-0.23309 3.07097,-0.97327 3.85512,-1.70249l0,-0.00001z"/>
    <path id="svg_8" fill="#674172" d="m36.82394,31.95633c4.46539,-0.47129 7.95485,-1.68495 9.14557,-2.98557l-0.99127,-4.76478c-1.70552,1.16032 -4.79951,2.3981 -8.53274,2.91542"/>
    <path id="svg_9" fill="#4F3058" d="m42.20388,31.17962c2.86982,-0.60135 3.25507,-1.24508 4.13724,-2.20885l-0.99212,-4.76478c-1.28873,0.87609 -1.98594,1.17421 -4.32902,1.88881l0.94354,4.08013l0.24036,1.00469l0,0z"/>
    <path id="svg_10" fill="#674172" d="m28.82647,31.94683c-4.42448,-0.47714 -7.87814,-1.68349 -9.06204,-2.97607l2.27062,-4.01948c1.76604,0.90458 4.2864,1.74633 7.19457,2.15624"/>
    <path id="svg_11" fill="#785083" d="m22.03505,24.95128l-1.3126,2.32357c-0.33667,0.624 -0.55061,1.03392 -0.57447,1.10698c-0.34434,1.04049 2.50502,1.90781 3.09142,2.06783l1.43192,-4.4104c-0.99382,-0.33392 -1.88622,-0.70438 -2.63628,-1.08799l0.00001,0.00001z"/>
    <path id="svg_12" fill="#F4D08C" d="m37.08987,31.17962c0,0.80667 -0.76369,1.46136 -1.70467,1.46136l-5.11402,0c-0.94098,0 -1.70467,-0.65469 -1.70467,-1.46136l0,-2.92273c0,-0.80667 0.76369,-1.46136 1.70467,-1.46136l5.11402,0c0.94098,0 1.70467,0.65469 1.70467,1.46136l0,2.92273z"/>
    <path id="svg_13" fill="#FEDA96" d="m30.27118,31.17962l0,-2.92273c0,-0.80667 0.76369,-1.46136 1.70467,-1.46136l-1.70467,0c-0.94098,0 -1.70467,0.65469 -1.70467,1.46136l0,2.92273c0,0.80667 0.76369,1.46136 1.70467,1.46136l1.70467,0c-0.94098,0 -1.70467,-0.65469 -1.70467,-1.46136z"/>
    <path id="svg_14" fill="#D7AF75" d="m35.38519,26.79552l-2.55701,0c0.94098,0 1.70467,0.65469 1.70467,1.46136l0,2.92273c0,0.80667 -0.76369,1.46136 -1.70467,1.46136l2.55701,0c0.94098,0 1.70467,-0.65469 1.70467,-1.46136l0,-2.92273c0,-0.80667 -0.76369,-1.46136 -1.70467,-1.46136z"/>
    <path id="svg_15" fill="#272223" d="m46.4954,27.70303l-3.47412,-15.64099c-0.04688,-0.20824 -0.19604,-0.38872 -0.40997,-0.4954l-17.70132,-8.78499c-0.40401,-0.20094 -0.92478,-0.08476 -1.16173,0.26158l-9.31603,13.57754c-0.19433,0.2835 -0.14404,0.64227 0.12274,0.87828s0.68357,0.29081 1.02025,0.13371l9.47286,-4.43013l1.28362,2.20082l-6.71641,12.23381c-4.74922,0.88047 -7.16303,2.26804 -7.16303,4.12762c0,3.58034 9.5402,6.72082 20.41601,6.72082c10.87581,0.00073 20.41601,-3.13974 20.41601,-6.72009c0,-1.81501 -2.28597,-3.1792 -6.78886,-4.06259l-0.00002,0.00001zm-25.66981,1.16032l1.58875,-2.89423c1.59472,0.71534 3.46389,1.28162 5.42256,1.64988c-0.0716,0.2024 -0.12274,0.4143 -0.12274,0.63789l0,2.80947c-3.43065,-0.49467 -5.801,-1.38757 -6.88858,-2.20301l0.00001,0zm8.59325,2.31626l0,-2.92273c0,-0.40334 0.38185,-0.73068 0.85234,-0.73068l5.11402,0c0.47049,0 0.85234,0.32735 0.85234,0.73068l0,2.92273c0,0.40334 -0.38185,0.73068 -0.85234,0.73068l-5.11402,0c-0.47049,0 -0.85234,-0.32735 -0.85234,-0.73068zm8.40744,-3.53943c2.41211,-0.44718 4.67847,-1.20416 6.44622,-2.13505l0.72875,3.28515c-1.05008,0.84321 -3.4835,1.7814 -7.05905,2.28777l0,-2.82116c0,-0.21555 -0.04773,-0.41941 -0.11592,-0.6167l0,-0.00001zm-9.78567,-12.57358l-2.79481,-4.79255c-0.21138,-0.36096 -0.72193,-0.50709 -1.14384,-0.32662c-0.42105,0.18048 -0.59152,0.61962 -0.38099,0.98058l0.56425,0.96669l-6.82125,3.18943l7.32498,-10.67527l16.63078,8.25525l2.50843,11.29343c-1.52568,0.89874 -4.08695,1.90416 -7.30964,2.39079c-0.3665,-0.17536 -0.78415,-0.2835 -1.23333,-0.2835l-5.11402,0c-0.43895,0 -0.84552,0.10449 -1.20691,0.27181c-2.70872,-0.41503 -4.70745,-1.14352 -5.92118,-1.69372l4.9069,-8.93771c0.10995,-0.20313 0.10739,-0.43768 -0.00938,-0.63862l0.00001,0.00001zm4.82678,21.95847c-10.8545,0 -18.71134,-3.14193 -18.71134,-5.25945c0,-0.92577 1.7882,-1.8384 4.84383,-2.50405c0.02813,0.05407 0.04944,0.11033 0.09376,0.16002c1.34925,1.47452 4.88644,2.69256 9.27427,3.20843c0.46878,0.45156 1.14384,0.74164 1.90327,0.74164l5.11402,0c0.75347,0 1.42511,-0.28643 1.89304,-0.73141c4.43044,-0.51002 8.00173,-1.73172 9.36206,-3.21866c0.04688,-0.05042 0.06904,-0.10887 0.09717,-0.1666c3.05648,0.66711 4.84212,1.58047 4.84212,2.51062c0,2.11752 -7.85769,5.25945 -18.71219,5.25945l-0.00001,0.00001z"/>
    <rect id="svg_16" x="31.08345" y="29.03872" fill="#272223" width="3.56873" height="1.46136"/>
   </g>
   <g id="svg_46">
    <path id="svg_47" d="m21.23565,7.25026c-0.12011,0.01202 -0.22821,0.11417 -0.2192,0.24036c0.00901,0.11717 0.09609,0.21332 0.21019,0.22834c0.12311,0.01803 0.24022,-0.05708 0.26724,-0.18628c0.03003,-0.16224 -0.09909,-0.29744 -0.25824,-0.28242z" fill="#7cb342"/>
    <path id="svg_48" d="m21.5149,8.3589c-0.01501,-0.07812 -0.03603,-0.15323 -0.05405,-0.22834c-0.01802,-0.08112 -0.04504,-0.16524 -0.07807,-0.23735c-0.04804,-0.10516 -0.16215,-0.14121 -0.23121,-0.05108c-0.05705,0.07511 -0.09909,0.19529 -0.12311,0.28843c-0.07207,0.2674 -0.28526,1.0786 0.18017,1.1447c0.12011,0.01502 0.24022,-0.06309 0.29427,-0.17426c0.06606,-0.14421 0.06306,-0.30645 0.04804,-0.46269c-0.00601,-0.07812 -0.02102,-0.2043 -0.03603,-0.27941l0,0z" fill="#7cb342"/>
    <path id="svg_49" d="m23.0373,7.44254c-0.06306,-0.46869 -0.8738,-0.25538 -1.14104,-0.18027c-0.09309,0.02404 -0.21319,0.0661 -0.28826,0.12318c-0.09309,0.0691 -0.05405,0.18628 0.05105,0.23134c0.07507,0.03305 0.15915,0.05708 0.23722,0.07812c0.07507,0.01803 0.15314,0.03605 0.22821,0.05408c0.07507,0.01502 0.20118,0.03004 0.27926,0.03605c0.15614,0.01502 0.31829,0.02103 0.46242,-0.04807c0.1081,-0.05108 0.18917,-0.17426 0.17116,-0.29444l0,0z" fill="#7cb342"/>
    <path id="svg_50" d="m20.86931,7.38546c-0.07507,-0.05708 -0.19518,-0.09614 -0.28826,-0.12318c-0.26724,-0.07211 -1.07799,-0.28542 -1.14104,0.18027c-0.01501,0.12018 0.06306,0.24036 0.17416,0.29444c0.14113,0.0661 0.30628,0.06309 0.46242,0.04807c0.07807,-0.00601 0.20419,-0.02103 0.27926,-0.03605c0.07807,-0.01502 0.15314,-0.03605 0.22821,-0.05408c0.08107,-0.01803 0.16515,-0.04507 0.23722,-0.07812c0.1051,-0.04507 0.14113,-0.15924 0.04804,-0.23134l0,0z" fill="#7cb342"/>
    <path id="svg_51" d="m21.76113,7.05797c0.00901,0 0.02102,-0.003 0.03003,-0.00901c0.07807,-0.05708 0.77471,-0.56484 0.82576,-0.61591c0.02402,-0.02404 0.06606,-0.07211 0.09008,-0.1322c0.02702,-0.07511 0.01201,-0.14421 -0.04204,-0.19829c-0.03603,-0.03605 -0.08408,-0.05708 -0.13212,-0.05708c-0.08107,0 -0.15915,0.05108 -0.20719,0.09614c-0.04804,0.05108 -0.5495,0.75412 -0.60656,0.83524c-0.01501,0.02103 -0.01201,0.04807 0.00601,0.0661c0.00901,0.00901 0.02402,0.01502 0.03603,0.01502l0,0z" fill="#7cb342"/>
    <path id="svg_52" d="m19.86039,6.43004c0.05105,0.05108 0.74768,0.55883 0.82576,0.61591c0.00901,0.00601 0.02102,0.00901 0.03003,0.00901c0.01201,0 0.02702,-0.00601 0.03603,-0.01502c0.01802,-0.01803 0.02102,-0.04507 0.00601,-0.0661c-0.05705,-0.08112 -0.55551,-0.78416 -0.60956,-0.83524c-0.04804,-0.04807 -0.12611,-0.09614 -0.20719,-0.09614c-0.05105,0 -0.09609,0.01803 -0.13212,0.05708c-0.05405,0.05408 -0.06906,0.12318 -0.04204,0.19829c0.02402,0.06009 0.06906,0.10816 0.09309,0.1322z" fill="#7cb342"/>
    <path id="svg_53" d="m22.61691,8.51513c-0.05105,-0.05108 -0.74768,-0.55883 -0.82576,-0.61591c-0.02102,-0.01502 -0.04804,-0.01202 -0.06606,0.00601s-0.02102,0.04507 -0.00601,0.0661c0.05705,0.08112 0.55551,0.78416 0.60956,0.83524c0.04804,0.04807 0.12611,0.09614 0.20719,0.09614c0.05105,0 0.09609,-0.01803 0.13212,-0.05708c0.05405,-0.05408 0.06906,-0.12318 0.04204,-0.19829c-0.02402,-0.06009 -0.06906,-0.10816 -0.09309,-0.1322l0,0z" fill="#7cb342"/>
    <path id="svg_54" d="m20.68615,7.89922c-0.07807,0.05708 -0.77471,0.56183 -0.82576,0.61591c-0.02402,0.02404 -0.06606,0.07211 -0.09008,0.1322c-0.02702,0.07511 -0.01201,0.14421 0.04204,0.19829c0.03603,0.03605 0.08408,0.05708 0.13212,0.05708c0.08107,0 0.15915,-0.05108 0.20719,-0.09614c0.05105,-0.05108 0.55251,-0.75712 0.60956,-0.83524c0.01501,-0.02103 0.01201,-0.04807 -0.00601,-0.0661c-0.02102,-0.02103 -0.04804,-0.02103 -0.06906,-0.00601z" fill="#7cb342"/>
    <path id="svg_55" d="m22.59499,6.15003c-0.01772,-0.04326 -0.08197,-0.04447 -0.14353,-0.01172c-0.04954,0.02644 -0.09519,0.08292 -0.06216,0.12619c0.03423,0.04477 0.08197,-0.01412 0.12611,-0.04116c0.04444,-0.02674 0.09609,-0.03335 0.07957,-0.07331l0,0z" opacity="0.3" fill="#ffffff"/>
    <path id="svg_56" d="m20.01863,6.14371c-0.01772,-0.04326 -0.08197,-0.04447 -0.14353,-0.01172c-0.04954,0.02644 -0.09519,0.08292 -0.06216,0.12619c0.03423,0.04477 0.08197,-0.01412 0.12611,-0.04116c0.04474,-0.02674 0.09609,-0.03335 0.07957,-0.07331l0,0z" opacity="0.3" fill="#ffffff"/>
    <path id="svg_57" d="m21.15157,7.10304c0.06906,0.09314 0.18617,0.05408 0.23121,-0.05108c0.03303,-0.07511 0.05705,-0.15924 0.07807,-0.23735c0.01802,-0.07511 0.03603,-0.15323 0.05405,-0.22834c0.01501,-0.07511 0.03003,-0.2013 0.03603,-0.27941c0.01501,-0.15623 0.02102,-0.31847 -0.04804,-0.46269c-0.05105,-0.11116 -0.17416,-0.18928 -0.29427,-0.17426c-0.46843,0.06309 -0.25523,0.8743 -0.18017,1.1447c0.02702,0.09614 0.06606,0.21632 0.12311,0.28843l0,0z" fill="#7cb342"/>
    <path id="svg_58" d="m21.36086,5.81172c-0.02672,-0.0655 -0.12401,-0.0673 -0.2174,-0.01773c-0.07507,0.03996 -0.14413,0.12559 -0.09398,0.19108c0.05195,0.0679 0.12401,-0.02133 0.19097,-0.06219c0.06696,-0.04116 0.14563,-0.05078 0.12041,-0.11116l0,0z" opacity="0.3" fill="#ffffff"/>
   </g>
   <g id="svg_59">
    <g id="svg_60" fill="#c28fef">
     <path id="svg_61" d="m2.30019,21.28702c0.06104,0 0.24417,-0.8023 0.24972,-1.02488c0.00555,-0.10352 -0.11099,-0.19152 -0.24972,-0.19152s-0.25527,0.08282 -0.24972,0.19152c0.0111,0.22258 0.18868,1.02488 0.24972,1.02488"/>
     <path id="svg_62" d="m1.93394,21.62864c0,-0.05694 -0.86014,-0.22775 -1.09876,-0.23293c-0.11099,-0.00517 -0.20533,0.10352 -0.20533,0.23293s0.08879,0.2381 0.20533,0.23293c0.23862,-0.01035 1.09876,-0.17599 1.09876,-0.23293"/>
     <path id="svg_63" d="m2.04492,21.25079l-0.94893,-0.74537l0.80465,0.88512c0.03885,-0.05176 0.08879,-0.09835 0.14428,-0.13975"/>
     <path id="svg_64" d="m2.55546,22.00651l0.94893,0.75054l-0.7991,-0.8903c-0.04439,0.05176 -0.09434,0.09835 -0.14983,0.13975"/>
     <path id="svg_65" d="m3.75966,21.39572c-0.23862,0.00517 -1.09876,0.17599 -1.09876,0.23293s0.86014,0.22258 1.09876,0.23293c0.11099,0.00517 0.20533,-0.10352 0.20533,-0.23293s-0.08879,-0.2381 -0.20533,-0.23293"/>
     <path id="svg_66" d="m2.30019,21.97027c-0.06104,0 -0.23862,0.8023 -0.24972,1.02488c-0.00555,0.10352 0.11099,0.19152 0.24972,0.19152s0.25527,-0.08282 0.24972,-0.19152c-0.00555,-0.22258 -0.18868,-1.02488 -0.24972,-1.02488"/>
     <path id="svg_67" d="m2.70529,21.39054l0.80465,-0.88512l-0.95448,0.74537c0.05549,0.04141 0.10544,0.088 0.14983,0.13975"/>
     <path id="svg_68" d="m1.89509,21.86675l-0.7991,0.88512l0.94893,-0.75054c-0.05549,-0.03623 -0.10544,-0.08282 -0.14983,-0.13458"/>
     <circle id="svg_69" cx="2.30019" cy="21.62864" r="0.17291"/>
    </g>
   </g>
  </g>
 </g>

</svg>